# xmcd
#
# Track frame offsets:
#	150
#	15150
#	31514
#	46702
#	58627
#	77640
#	87765
#	102990
#	118628
#	132128
#
# Disc length: 1881 seconds
#
# Revision: 1
# Processed by: cddbd v1.5.2PL0 Copyright (c) Steve Scherf et al.
# Submitted via: audiograbber 1.83.01
#
DISCID=6407570a
DTITLE=Maggie - Peaceful Easy Fealing
DYEAR=1900
DGENRE=Country
TTITLE0=Peaceful Easy Fealing
TTITLE1=California
TTITLE2=Danny Boy
TTITLE3=I Fall In Love All Over Again
TTITLE4=Youve Got A Friend
TTITLE5=Just One Time
TTITLE6=Pardon Me
TTITLE7=You Remind Me Of A  Love Song
TTITLE8=Will You Still Love Me Tomorrow
TTITLE9=Stupid Cupid
EXTD=
EXTT0=
EXTT1=
EXTT2=
EXTT3=
EXTT4=
EXTT5=
EXTT6=
EXTT7=
EXTT8=
EXTT9=
PLAYORDER=
